<?xml version="1.0" standalone="no"?>
<!DOCTYPE svg PUBLIC "-//W3C//DTD SVG 20010904//EN"
 "http://www.w3.org/TR/2001/REC-SVG-20010904/DTD/svg10.dtd">
<svg version="1.0" xmlns="http://www.w3.org/2000/svg"
 width="400.000000pt" height="400.000000pt" viewBox="0 0 400.000000 400.000000"
 preserveAspectRatio="xMidYMid meet">
<metadata>
Created by potrace 1.11, written by Peter Selinger 2001-2013
</metadata>
<g transform="translate(0.000000,400.000000) scale(0.100000,-0.100000)"
fill="#000000" stroke="none">
<path d="M3445 2879 c-85 -11 -192 -34 -290 -59 -22 -6 -88 -21 -147 -34 -105
-23 -108 -23 -114 -4 -7 23 -42 38 -88 38 -35 0 -72 -32 -98 -85 -35 -70 -105
-295 -194 -619 l-54 -198 -55 -52 c-51 -48 -55 -55 -55 -96 0 -28 8 -58 21
-79 22 -36 21 -40 -16 -231 -7 -33 -20 -156 -18 -175 0 -11 1 -33 2 -48 2 -63
94 -103 135 -59 10 12 40 121 76 277 32 141 60 259 62 260 5 5 151 66 218 91
75 29 236 72 295 80 22 3 74 7 115 9 41 2 82 7 92 10 32 13 55 112 31 136 -49
49 -276 49 -468 0 -66 -16 -140 -37 -164 -45 -24 -9 -45 -16 -46 -16 -14 0 99
373 140 467 19 43 32 56 72 76 68 34 210 82 333 112 58 14 121 29 140 34 31 8
136 29 239 46 74 13 110 44 118 103 8 58 -10 67 -131 68 -56 0 -123 -3 -151
-7z"/>
<path d="M2273 2840 c-166 -75 -344 -278 -710 -813 -34 -49 -66 -94 -71 -99
-6 -6 -2 30 8 79 10 48 21 102 23 118 3 17 18 89 32 160 15 72 29 144 32 160
3 17 10 55 17 85 31 135 -5 239 -98 281 -59 27 -111 24 -180 -11 -77 -39 -130
-82 -241 -194 -136 -137 -246 -287 -379 -519 -59 -103 -206 -390 -206 -402 0
-2 -13 -33 -29 -67 -74 -162 -145 -391 -136 -438 16 -83 127 -120 182 -61 10
11 36 68 57 128 252 700 546 1221 748 1324 50 26 67 24 79 -8 12 -33 6 -90
-25 -248 -13 -64 -63 -264 -126 -500 -159 -599 -162 -616 -114 -660 33 -31 82
-33 112 -5 29 27 65 91 102 180 42 102 83 170 303 500 244 366 338 490 466
620 l104 105 10 -39 c7 -29 5 -57 -8 -115 -9 -42 -19 -89 -22 -106 -2 -16 -13
-67 -24 -112 -10 -44 -21 -95 -24 -113 -3 -17 -21 -102 -40 -188 -18 -87 -36
-169 -39 -183 -2 -13 -12 -60 -21 -104 -9 -44 -19 -91 -22 -105 -2 -14 -12
-62 -22 -107 -18 -78 -18 -83 -1 -121 42 -94 133 -94 179 0 17 36 55 214 77
358 3 19 14 85 24 145 11 61 22 126 25 145 3 19 7 46 10 60 3 14 7 39 9 55 11
64 88 511 91 525 8 35 19 137 18 165 -7 130 -65 173 -170 125z"/>
</g>
</svg>
